<svg version="1.2" xmlns="http://www.w3.org/2000/svg" viewBox="0 0 640 640" width="640" height="640">
	<style>
		.s0 { fill: #000000 } 
		.s1 { fill: #ffffff } 
	</style>
	<path class="s0" d="m320 576c141.4 0 256-114.6 256-256 0-141.4-114.6-256-256-256-141.4 0-256 114.6-256 256 0 141.4 114.6 256 256 256zm-24-168v-64h-64c-13.3 0-24-10.7-24-24 0-13.3 10.7-24 24-24h64v-64c0-13.3 10.7-24 24-24 13.3 0 24 10.7 24 24v64h64c13.3 0 24 10.7 24 24 0 13.3-10.7 24-24 24h-64v64c0 13.3-10.7 24-24 24-13.3 0-24-10.7-24-24z"/>
	<path id="Layer copy" class="s1" d="m320 576c141.4 0 256-114.6 256-256 0-141.4-114.6-256-256-256-141.4 0-256 114.6-256 256 0 141.4 114.6 256 256 256zm-24-168v-64h-64c-13.3 0-24-10.7-24-24 0-13.3 10.7-24 24-24h64v-64c0-13.3 10.7-24 24-24 13.3 0 24 10.7 24 24v64h64c13.3 0 24 10.7 24 24 0 13.3-10.7 24-24 24h-64v64c0 13.3-10.7 24-24 24-13.3 0-24-10.7-24-24z"/>
</svg>